<svg width="12" height="12" viewBox="0 0 12 12" fill="none" xmlns="http://www.w3.org/2000/svg">
<g clip-path="url(#clip0_77_105)">
<path fill-rule="evenodd" clip-rule="evenodd" d="M2.64726 0.800049C2.34425 0.800049 2.06723 0.971249 1.93172 1.24228L0.842281 3.42116C0.814505 3.4767 0.800049 3.53795 0.800049 3.60005V10.4C0.800049 10.8419 1.15822 11.2 1.60005 11.2H10.4C10.8419 11.2 11.2 10.8419 11.2 10.4V3.60005C11.2 3.53795 11.1856 3.4767 11.1578 3.42116L10.0684 1.2423C9.93285 0.971273 9.65589 0.800073 9.35285 0.800073L6.00005 0.800057L2.64726 0.800049ZM2.64726 1.60005L5.60005 1.60006V3.20005H1.84726L2.64726 1.60005ZM6.40005 3.20005V1.60006L9.35285 1.60007L10.1528 3.20005H6.40005ZM6.00005 4.00005H10.4V10.4H1.60005V4.00005H6.00005ZM4.40005 5.60005C4.17914 5.60005 4.00005 5.77914 4.00005 6.00005C4.00005 6.22096 4.17914 6.40005 4.40005 6.40005H7.60005C7.82096 6.40005 8.00005 6.22096 8.00005 6.00005C8.00005 5.77914 7.82096 5.60005 7.60005 5.60005H4.40005Z" fill="#A1A1AA"/>
</g>
<defs>
<clipPath id="clip0_77_105">
<rect width="12" height="12" fill="white"/>
</clipPath>
</defs>
</svg>
