<svg width="11" height="12" viewBox="0 0 11 12" fill="none" xmlns="http://www.w3.org/2000/svg">
<path fill-rule="evenodd" clip-rule="evenodd" d="M2.75 2.43747V2.44122C2.74951 2.59024 2.6899 2.73298 2.58426 2.83809C2.47862 2.9432 2.33559 3.00209 2.18657 3.00185C2.03755 3.0016 1.89471 2.94223 1.78943 2.83676C1.68414 2.7313 1.62501 2.58837 1.62501 2.43935C1.62501 2.29033 1.68414 2.14739 1.78943 2.04193C1.89471 1.93647 2.03755 1.8771 2.18657 1.87685C2.33559 1.8766 2.47862 1.9355 2.58426 2.04061C2.6899 2.14572 2.74951 2.28845 2.75 2.43747ZM3.0875 3.86547C3.4106 3.66177 3.65503 3.35449 3.78085 2.99387C3.90666 2.63324 3.90642 2.2406 3.78015 1.88013C3.65388 1.51966 3.40907 1.21268 3.08572 1.00939C2.76237 0.806092 2.37962 0.718503 2.00004 0.760938C1.62046 0.803373 1.26651 0.973322 0.996034 1.243C0.725563 1.51268 0.554579 1.86614 0.511033 2.2456C0.467487 2.62505 0.553955 3.00805 0.756302 3.332C0.958649 3.65594 1.2649 3.90165 1.625 4.02897V7.97097C1.2497 8.10366 0.933379 8.36476 0.731961 8.70812C0.530542 9.05147 0.456991 9.45498 0.524306 9.84732C0.591621 10.2397 0.795469 10.5956 1.09982 10.8522C1.40417 11.1087 1.78943 11.2495 2.1875 11.2495C2.58558 11.2495 2.97084 11.1087 3.27519 10.8522C3.57954 10.5956 3.78339 10.2397 3.8507 9.84732C3.91802 9.45498 3.84446 9.05147 3.64305 8.70812C3.44163 8.36476 3.12531 8.10366 2.75 7.97097V5.34222C3.15371 5.78625 3.64586 6.14089 4.19482 6.38333C4.74377 6.62578 5.33739 6.75067 5.9375 6.74997H6.971C7.1037 7.12549 7.36489 7.442 7.70839 7.64356C8.0519 7.84512 8.4556 7.91875 8.84815 7.85143C9.24069 7.78411 9.59679 7.58018 9.85351 7.27569C10.1102 6.9712 10.251 6.58575 10.251 6.18747C10.251 5.7892 10.1102 5.40375 9.85351 5.09925C9.59679 4.79476 9.24069 4.59083 8.84815 4.52351C8.4556 4.45619 8.0519 4.52982 7.70839 4.73138C7.36489 4.93294 7.1037 5.24945 6.971 5.62497H5.9375C5.34598 5.62502 4.76611 5.46047 4.26277 5.14973C3.75944 4.83899 3.35251 4.39432 3.0875 3.86547ZM8.5625 6.74997C8.71169 6.74997 8.85476 6.69071 8.96025 6.58522C9.06574 6.47973 9.125 6.33666 9.125 6.18747C9.125 6.03829 9.06574 5.89521 8.96025 5.78972C8.85476 5.68424 8.71169 5.62497 8.5625 5.62497C8.41332 5.62497 8.27025 5.68424 8.16476 5.78972C8.05927 5.89521 8 6.03829 8 6.18747C8 6.33666 8.05927 6.47973 8.16476 6.58522C8.27025 6.69071 8.41332 6.74997 8.5625 6.74997ZM2.1875 10.125C2.33669 10.125 2.47976 10.0657 2.58525 9.96022C2.69074 9.85473 2.75 9.71166 2.75 9.56247C2.75 9.41329 2.69074 9.27021 2.58525 9.16472C2.47976 9.05924 2.33669 8.99997 2.1875 8.99997C2.03832 8.99997 1.89525 9.05924 1.78976 9.16472C1.68427 9.27021 1.625 9.41329 1.625 9.56247C1.625 9.71166 1.68427 9.85473 1.78976 9.96022C1.89525 10.0657 2.03832 10.125 2.1875 10.125Z" fill="#A1A1AA"/>
</svg>
