<svg width="12" height="12" viewBox="0 0 12 12" fill="none" xmlns="http://www.w3.org/2000/svg">
<g clip-path="url(#clip0_77_103)">
<path fill-rule="evenodd" clip-rule="evenodd" d="M6.00005 0.70166C3.0739 0.70166 0.701782 3.07378 0.701782 5.99992C0.701782 8.92605 3.0739 11.2982 6.00005 11.2982C8.92622 11.2982 11.2983 8.92605 11.2983 5.99992C11.2983 3.07378 8.92614 0.70166 6.00005 0.70166ZM1.46178 5.99992C1.46178 3.49351 3.49364 1.46166 6.00005 1.46166C8.50646 1.46166 10.5383 3.49351 10.5383 5.99992C10.5383 8.50629 8.50646 10.5382 6.00005 10.5382C3.49364 10.5382 1.46178 8.50629 1.46178 5.99992ZM6.39998 3.60006C6.39998 3.37914 6.22089 3.20006 5.99998 3.20006C5.77906 3.20006 5.59998 3.37914 5.59998 3.60006V6.00006C5.59998 6.10614 5.64212 6.20789 5.71714 6.2829L7.31714 7.8829C7.47334 8.03909 7.72661 8.03909 7.88282 7.8829C8.03902 7.7267 8.03902 7.47342 7.88282 7.31722L6.39998 5.83438V3.60006Z" fill="currentColor"/>
</g>
<defs>
<clipPath id="clip0_77_103">
<rect width="12" height="12" fill="currentColor"/>
</clipPath>
</defs>
</svg>
