<svg width="12" height="12" viewBox="0 0 12 12" fill="none" xmlns="http://www.w3.org/2000/svg">
<path fill-rule="evenodd" clip-rule="evenodd" d="M7.95975 5.99986C7.95975 7.08225 7.0823 7.9597 5.99991 7.9597C4.91753 7.9597 4.04008 7.08225 4.04008 5.99986C4.04008 4.91748 4.91753 4.04003 5.99991 4.04003C7.0823 4.04003 7.95975 4.91748 7.95975 5.99986ZM8.69056 6.39995C8.49704 7.71239 7.36611 8.71971 5.99991 8.71971C4.63371 8.71971 3.50278 7.71239 3.3093 6.39995H0.4C0.179086 6.39995 0 6.22086 0 5.99995C0 5.77904 0.179086 5.59995 0.4 5.59995H3.30927C3.50268 4.28743 4.63365 3.28003 5.99991 3.28003C7.36618 3.28003 8.49712 4.28743 8.69056 5.59995H11.6C11.8209 5.59995 12 5.77904 12 5.99995C12 6.22086 11.8209 6.39995 11.6 6.39995H8.69056Z" fill="#A1A1AA"/>
</svg>
