<svg width="20" height="20" viewBox="0 0 20 20" fill="none" xmlns="http://www.w3.org/2000/svg">
<path fill-rule="evenodd" clip-rule="evenodd" d="M17.3334 16C17.3334 16.7364 16.7364 17.3333 16 17.3333H11.3334C10.9652 17.3333 10.6667 17.0348 10.6667 16.6666C10.6667 16.2985 10.9652 16 11.3334 16H16V3.99996H4.00002V8.66663C4.00002 9.03481 3.70154 9.33329 3.33335 9.33329C2.96517 9.33329 2.66669 9.03481 2.66669 8.66663V3.99996C2.66669 3.26357 3.26363 2.66663 4.00002 2.66663H16C16.7364 2.66663 17.3334 3.26357 17.3334 3.99996V16Z" fill="black"/>
<path d="M7.33331 8.66663H11.3333V12.6666" stroke="black" stroke-linecap="round" stroke-linejoin="round"/>
<path d="M3.33331 16.6666L11.3333 8.66663" stroke="black" stroke-linecap="round"/>
</svg>
